<svg id="Layer_1" data-name="Layer 1" xmlns="http://www.w3.org/2000/svg" viewBox="0 0 70.27 38.29"><defs><style>.cls-1{fill:#231f20;}</style></defs><path class="cls-1" d="M18.5,0a9.42,9.42,0,0,1,8.36,4.66c.75,1.13,1.06,3,.94,5.53a45.3,45.3,0,0,1-3.56,14.27A7.3,7.3,0,0,0,27,23.55a11.41,11.41,0,0,0,2.85-2.15,48.19,48.19,0,0,0,4.91-6.21,52.75,52.75,0,0,0,3.71-5.8C39.09,8.48,39.59,8,39.94,8s.45.33.45.76q-.11,1.85-4.16,9.46a44.32,44.32,0,0,1-6,8.33Q25.7,31.2,21.72,31.2h-1a41.38,41.38,0,0,1-2.66,3.45,10.54,10.54,0,0,1-7.87,3.64,9.92,9.92,0,0,1-8-3.6A13.15,13.15,0,0,1,0,26.24Q.28,20.45,4.22,12,10.37,0,18.5,0ZM8.42,28.48c-.1,2.35.27,3.87,1.12,4.58l.34,0q2.32,0,5.1-4.74a17.24,17.24,0,0,1-2.37-2.84A23.56,23.56,0,0,1,10.29,21a3.15,3.15,0,0,1-.22-.68,10.3,10.3,0,0,0-.68,2.35A35.12,35.12,0,0,0,8.42,28.48Zm5.43-16.55A14.38,14.38,0,0,0,16,19.35a15.8,15.8,0,0,0,2,2.5A47.83,47.83,0,0,0,21.16,8.63c.1-2.17-.22-3.51-1-4a1.29,1.29,0,0,0-.6-.11c-1.48.4-3.1,2.05-4.88,5A4.22,4.22,0,0,0,13.85,11.93Z"/><path class="cls-1" d="M48.38,0a9.42,9.42,0,0,1,8.36,4.66c.75,1.13,1.06,3,.93,5.53a45,45,0,0,1-3.56,14.27,7.28,7.28,0,0,0,2.74-.91A11.41,11.41,0,0,0,59.7,21.4a48.19,48.19,0,0,0,4.91-6.21,52.75,52.75,0,0,0,3.71-5.8C69,8.48,69.47,8,69.82,8s.45.33.45.76q-.1,1.85-4.16,9.46a44.32,44.32,0,0,1-6,8.33Q55.58,31.2,51.6,31.2h-1A41.38,41.38,0,0,1,48,34.65a10.54,10.54,0,0,1-7.88,3.64,9.9,9.9,0,0,1-8-3.6,13.15,13.15,0,0,1-2.17-8.45q.26-5.79,4.2-14.27Q40.24,0,48.38,0ZM38.29,28.48c-.1,2.35.28,3.87,1.13,4.58l.34,0c1.55,0,3.24-1.58,5.09-4.74a17.16,17.16,0,0,1-2.36-2.84A23,23,0,0,1,40.17,21a3.51,3.51,0,0,1-.23-.68,10.72,10.72,0,0,0-.67,2.35A35.27,35.27,0,0,0,38.29,28.48Zm5.44-16.55a14.35,14.35,0,0,0,2.17,7.42,15.93,15.93,0,0,0,2,2.5A48.19,48.19,0,0,0,51,8.63c.1-2.17-.23-3.51-1-4a1.29,1.29,0,0,0-.6-.11q-2.2.6-4.87,5A4.15,4.15,0,0,0,43.73,11.93Z"/></svg>