<svg id="Layer_1" data-name="Layer 1" xmlns="http://www.w3.org/2000/svg" viewBox="0 0 216.64 65.89"><defs><style>.cls-1{fill:#231f20;}</style></defs><path class="cls-1" d="M27.55,0h0q10.5,0,15.82,7.27a12.77,12.77,0,0,1,2.17,6.86A19.68,19.68,0,0,1,43,22.83a27.83,27.83,0,0,1-3.3,4.59,24,24,0,0,1-3.23,3.14,31.1,31.1,0,0,1-3.9,2.76,29.4,29.4,0,0,1-8.84,3.49c0,.6,1.57,2.79,4.65,6.55a69.71,69.71,0,0,0,4.87,5.15,49.5,49.5,0,0,0,8.1,6.13,36.57,36.57,0,0,0,6.29,3,40.63,40.63,0,0,0,4.76,1.28,20.62,20.62,0,0,1,2.1.31c-.77,1.46-2.5,2.9-5.17,4.31a21.34,21.34,0,0,1-8.73,2.35h-.3a7.43,7.43,0,0,1-4.05-1.25q-12.4-7.08-19.83-27.15A9.84,9.84,0,0,0,16,39.38a41.16,41.16,0,0,0-.6,6.74v.65a26.25,26.25,0,0,0,1.05,7.84,10.53,10.53,0,0,1-3,.41q-4.77,0-6.3-5a9.2,9.2,0,0,1-.34-2.12q0-16.27,11.85-35.86a2.18,2.18,0,0,1,1.72-.72q2.17,0,5.17,2.5a2.16,2.16,0,0,1,.68,1.33v.18q0,.65-2.21,4.44A89.54,89.54,0,0,0,18.33,30.9a17,17,0,0,0,3.34-1.14,36.71,36.71,0,0,0,7-4.65,51.78,51.78,0,0,0,4-4q5.06-5.86,5.06-9.28v-.34c0-1.77-1.41-3.1-4.24-4A16.77,16.77,0,0,0,29.69,7a30,30,0,0,0-13.5,3.64,28.32,28.32,0,0,0-4.31,2.88,22.93,22.93,0,0,0-3,3.06,12.67,12.67,0,0,0-2.17,4.51.83.83,0,0,1-.9.64h-.3a6.74,6.74,0,0,1-4.2-2A4,4,0,0,1,0,17.15v-.41a11.91,11.91,0,0,1,2-4.85A20.57,20.57,0,0,1,5.1,8.37,32.82,32.82,0,0,1,16.68,1.86,34.54,34.54,0,0,1,27.55,0Z"/><path class="cls-1" d="M60.69,13a9.41,9.41,0,0,1,8.36,4.66c.75,1.13,1.06,3,.94,5.53a45.36,45.36,0,0,1-3.56,14.27,7.3,7.3,0,0,0,2.73-.91A11.26,11.26,0,0,0,72,34.38a46.82,46.82,0,0,0,4.91-6.21,51.81,51.81,0,0,0,3.71-5.79c.65-.91,1.15-1.36,1.5-1.36s.45.33.45.75q-.1,1.86-4.16,9.47a44.7,44.7,0,0,1-6,8.33q-4.55,4.62-8.51,4.62h-1a43.1,43.1,0,0,1-2.66,3.45,10.51,10.51,0,0,1-7.87,3.63,9.92,9.92,0,0,1-8-3.59,13.23,13.23,0,0,1-2.17-8.45q.27-5.79,4.2-14.27Q52.56,13,60.69,13ZM50.61,41.47c-.1,2.34.27,3.87,1.12,4.58l.34,0q2.32,0,5.1-4.74a16.68,16.68,0,0,1-2.36-2.84A23.11,23.11,0,0,1,52.48,34a3.15,3.15,0,0,1-.22-.68,10.3,10.3,0,0,0-.68,2.34A35.38,35.38,0,0,0,50.61,41.47ZM56,24.92a14.38,14.38,0,0,0,2.18,7.42,15.8,15.8,0,0,0,2,2.5,47.83,47.83,0,0,0,3.11-13.22c.1-2.17-.22-3.51-1-4a1.29,1.29,0,0,0-.6-.11q-2.22.6-4.87,5A4.23,4.23,0,0,0,56,24.92Z"/><path class="cls-1" d="M84.23,2.84h.23c.92,0,2.29.72,4.08,2.16a2.69,2.69,0,0,1,.94,2c0,1-1,3.84-3,8.56L85.55,18q3.81-3.9,6.86-3.9h.37a9,9,0,0,1,5.4,2,5.89,5.89,0,0,1,1.95,3,14.82,14.82,0,0,1,.3,2.62q0,6.81-5.55,18.17-6.3,11.48-14.66,11.48a10.92,10.92,0,0,1-7.61-3,8.37,8.37,0,0,1-2.4-6.14q0-3.75,2.74-11.13,5.43-16.24,9.63-26.32.83-1.89,1.32-1.89A1.77,1.77,0,0,1,84.23,2.84ZM78.12,43c0,1.29.29,2.12.87,2.5a1.11,1.11,0,0,0,.48.11h.08q1.45,0,4.2-3a24.77,24.77,0,0,0,3.15-5A53.32,53.32,0,0,0,90,29.54a28.77,28.77,0,0,0,1.39-7.61c0-1.87-.54-2.81-1.61-2.81q-3.45,0-8.74,12.27Q78.13,38.82,78.12,43Z"/><path class="cls-1" d="M119.25,13a9.42,9.42,0,0,1,8.36,4.66c.75,1.13,1.06,3,.93,5.53A45.09,45.09,0,0,1,125,37.45a7.28,7.28,0,0,0,2.74-.91,11.26,11.26,0,0,0,2.85-2.16,47.66,47.66,0,0,0,4.91-6.21,51.81,51.81,0,0,0,3.71-5.79c.65-.91,1.15-1.36,1.5-1.36s.45.33.45.75Q141,23.63,137,31.24a44.32,44.32,0,0,1-6,8.33q-4.53,4.62-8.51,4.62h-1a41.05,41.05,0,0,1-2.67,3.45A10.49,10.49,0,0,1,111,51.27a9.9,9.9,0,0,1-8-3.59,13.17,13.17,0,0,1-2.17-8.45Q101,33.44,105,25,111.11,13,119.25,13ZM109.16,41.47c-.1,2.34.28,3.87,1.13,4.58l.33,0q2.32,0,5.1-4.74a17.16,17.16,0,0,1-2.36-2.84A23,23,0,0,1,111,34a3.51,3.51,0,0,1-.23-.68,10.72,10.72,0,0,0-.67,2.34A35.54,35.54,0,0,0,109.16,41.47Zm5.44-16.55a14.35,14.35,0,0,0,2.17,7.42,15.93,15.93,0,0,0,2,2.5,48.19,48.19,0,0,0,3.11-13.22c.1-2.17-.23-3.51-1-4a1.29,1.29,0,0,0-.6-.11c-1.47.4-3.1,2.05-4.87,5A4.15,4.15,0,0,0,114.6,24.92Z"/><path class="cls-1" d="M143.88,3.56q1.58,0,4.23,2.16a2.64,2.64,0,0,1,.9,1.85q0,1.26-1.84,5.68h4q.33,0,.33.27v.11a14.36,14.36,0,0,1-1,2.73.7.7,0,0,1-.49.26h-4.23Q140.32,30,137.35,37.83a58.38,58.38,0,0,0-2.06,6.63c0,.3.09.45.26.45h.12q1.38-.18,7.34-7.5a115.44,115.44,0,0,0,7.73-10.75c.72-1.16,1.38-2.34,2-3.52.6-1,1.09-1.48,1.46-1.48s.45.25.45.76q0,1.81-3.63,8.48a115.58,115.58,0,0,1-7.31,11.82,45.28,45.28,0,0,1-3.75,4.69q-3.45,3.83-5.85,3.83h0a6.07,6.07,0,0,1-5.32-3,5.68,5.68,0,0,1-.9-3V45.1a9.92,9.92,0,0,1,.86-3.22q7.88-22.16,9-25.26h-3.41a.3.3,0,0,1-.34-.34A12.64,12.64,0,0,1,135,13.44a.91.91,0,0,1,.45-.19H139a84.82,84.82,0,0,1,3.79-9.12A1.17,1.17,0,0,1,143.88,3.56Z"/><path class="cls-1" d="M164.87,13a9.42,9.42,0,0,1,8.36,4.66c.75,1.13,1.06,3,.94,5.53a45.13,45.13,0,0,1-3.57,14.27,7.28,7.28,0,0,0,2.74-.91,11.26,11.26,0,0,0,2.85-2.16,46.82,46.82,0,0,0,4.91-6.21,51.81,51.81,0,0,0,3.71-5.79c.65-.91,1.15-1.36,1.5-1.36s.45.33.45.75q-.1,1.86-4.16,9.47a44.32,44.32,0,0,1-6,8.33q-4.53,4.62-8.51,4.62h-1a43.1,43.1,0,0,1-2.66,3.45,10.53,10.53,0,0,1-7.88,3.63,9.9,9.9,0,0,1-8-3.59,13.17,13.17,0,0,1-2.17-8.45q.26-5.79,4.2-14.27Q156.73,13,164.87,13ZM154.78,41.47c-.1,2.34.28,3.87,1.13,4.58l.34,0q2.33,0,5.09-4.74A17.67,17.67,0,0,1,159,38.51,23,23,0,0,1,156.66,34a3.51,3.51,0,0,1-.23-.68,10.72,10.72,0,0,0-.67,2.34A35.54,35.54,0,0,0,154.78,41.47Zm5.44-16.55a14.35,14.35,0,0,0,2.17,7.42,15.93,15.93,0,0,0,2,2.5,47.83,47.83,0,0,0,3.11-13.22c.1-2.17-.22-3.51-1-4a1.29,1.29,0,0,0-.6-.11c-1.48.4-3.1,2.05-4.88,5A4.22,4.22,0,0,0,160.22,24.92Z"/><path class="cls-1" d="M194.75,13a9.42,9.42,0,0,1,8.36,4.66c.75,1.13,1.06,3,.93,5.53a45.09,45.09,0,0,1-3.56,14.27,7.28,7.28,0,0,0,2.74-.91,11.26,11.26,0,0,0,2.85-2.16A47.66,47.66,0,0,0,211,28.17a53.31,53.31,0,0,0,3.71-5.79c.65-.91,1.15-1.36,1.5-1.36s.45.33.45.75q-.12,1.86-4.16,9.47a44.32,44.32,0,0,1-6,8.33Q202,44.19,198,44.19h-1a38.91,38.91,0,0,1-2.66,3.45,10.49,10.49,0,0,1-7.87,3.63,9.9,9.9,0,0,1-8-3.59,13.17,13.17,0,0,1-2.18-8.45q.27-5.79,4.2-14.27Q186.61,13,194.75,13ZM184.66,41.47c-.1,2.34.28,3.87,1.13,4.58l.33,0q2.32,0,5.1-4.74a17.16,17.16,0,0,1-2.36-2.84A23,23,0,0,1,186.54,34a3.51,3.51,0,0,1-.23-.68,10.72,10.72,0,0,0-.67,2.34A35.54,35.54,0,0,0,184.66,41.47Zm5.44-16.55a14.35,14.35,0,0,0,2.17,7.42,15.93,15.93,0,0,0,2,2.5,48.19,48.19,0,0,0,3.11-13.22c.1-2.17-.23-3.51-1-4a1.29,1.29,0,0,0-.6-.11c-1.47.4-3.1,2.05-4.87,5A4.15,4.15,0,0,0,190.1,24.92Z"/></svg>